<?xml version="1.0" encoding="UTF-8"?>
<svg xmlns="http://www.w3.org/2000/svg" xmlns:xlink="http://www.w3.org/1999/xlink" width="271pt" height="300pt" viewBox="0 0 271 300" version="1.1">
<g id="surface1">
<path style=" stroke:none;fill-rule:nonzero;fill:rgb(99.215686%,85.098039%,76.078431%);fill-opacity:1;" d="M 84.027344 74.265625 L 83.058594 60.597656 C 83.058594 60.597656 72.96875 58.503906 72.890625 66.464844 C 72.890625 66.464844 74.019531 77.644531 84.027344 74.265625 Z M 84.027344 74.265625 "/>
<path style="fill:none;stroke-width:4.734;stroke-linecap:round;stroke-linejoin:round;stroke:rgb(21.568627%,20.392157%,20.784314%);stroke-opacity:1;stroke-miterlimit:4;" d="M 166.730092 122.064441 C 166.730092 122.064441 146.47595 117.846911 146.319123 133.882966 C 146.319123 133.882966 148.585266 156.402687 168.674741 149.596412 " transform="matrix(0.498162,0,0,0.49644,0,0)"/>
<path style="fill-rule:nonzero;fill:rgb(40.392157%,27.45098%,18.039216%);fill-opacity:1;stroke-width:5.328;stroke-linecap:butt;stroke-linejoin:round;stroke:rgb(21.568627%,20.392157%,20.784314%);stroke-opacity:1;stroke-miterlimit:4;" d="M 297.468502 67.30737 C 297.468502 67.30737 313.990174 80.912051 310.093036 110.395417 L 305.074588 106.665736 C 305.074588 106.665736 309.128553 128.862847 297.782155 151.374699 L 294.55153 146.03197 C 294.55153 146.03197 290.489723 166.608165 272.352739 175.515336 L 210.63367 185.075595 C 210.63367 185.075595 173.536362 166.442926 158.308509 133.717727 C 158.308509 133.717727 145.676135 126.431472 145.346799 109.584959 C 145.346799 109.584959 143.723645 89.008764 145.025305 84.476493 C 146.319123 79.778983 232.495284 44.2998 297.468502 67.30737 Z M 297.468502 67.30737 " transform="matrix(0.498162,0,0,0.49644,0,0)"/>
<path style="fill-rule:nonzero;fill:rgb(100%,100%,100%);fill-opacity:1;stroke-width:5.328;stroke-linecap:butt;stroke-linejoin:round;stroke:rgb(21.568627%,20.392157%,20.784314%);stroke-opacity:1;stroke-miterlimit:4;" d="M 221.321396 546.815332 C 221.321396 546.815332 167.380922 565.77061 174.994848 581.484056 L 261.171009 581.484056 L 258.740199 550.379774 L 221.156728 546.815332 Z M 221.321396 546.815332 " transform="matrix(0.498162,0,0,0.49644,0,0)"/>
<path style=" stroke:none;fill-rule:nonzero;fill:rgb(100%,100%,100%);fill-opacity:1;" d="M 122.035156 273.390625 L 94.113281 287.386719 C 94.113281 287.386719 94.355469 282.15625 111.789062 277.171875 C 113.078125 276.769531 120.503906 273.792969 122.035156 273.390625 Z M 122.035156 273.390625 "/>
<path style="fill:none;stroke-width:5.328;stroke-linecap:round;stroke-linejoin:round;stroke:rgb(21.568627%,20.392157%,20.784314%);stroke-opacity:1;stroke-miterlimit:4;" d="M 188.921041 578.895311 C 188.921041 578.895311 189.407204 568.359355 224.403037 558.319116 C 226.990674 557.508658 241.897033 551.512842 244.970832 550.702383 " transform="matrix(0.498162,0,0,0.49644,0,0)"/>
<path style=" stroke:none;fill-rule:nonzero;fill:rgb(100%,100%,100%);fill-opacity:1;" d="M 108.640625 288.59375 L 104.847656 279.90625 C 104.847656 279.90625 107.589844 283.6875 108.640625 288.59375 Z M 108.640625 288.59375 "/>
<path style="fill:none;stroke-width:5.328;stroke-linecap:round;stroke-linejoin:round;stroke:rgb(21.568627%,20.392157%,20.784314%);stroke-opacity:1;stroke-miterlimit:4;" d="M 210.469002 563.827084 C 210.469002 563.827084 215.973612 571.443817 218.082929 581.326686 " transform="matrix(0.498162,0,0,0.49644,0,0)"/>
<path style=" stroke:none;fill-rule:nonzero;fill:rgb(100%,100%,100%);fill-opacity:1;" d="M 114.371094 287.867188 L 110.015625 278.378906 C 110.015625 278.378906 111.382812 279.023438 114.371094 287.867188 Z M 114.371094 287.867188 "/>
<path style="fill:none;stroke-width:5.328;stroke-linecap:round;stroke-linejoin:round;stroke:rgb(21.568627%,20.392157%,20.784314%);stroke-opacity:1;stroke-miterlimit:4;" d="M 220.843075 560.750491 C 220.843075 560.750491 223.587539 562.048798 229.586153 579.86314 " transform="matrix(0.498162,0,0,0.49644,0,0)"/>
<path style="fill-rule:nonzero;fill:rgb(19.215686%,47.843137%,74.509804%);fill-opacity:1;stroke-width:5.328;stroke-linecap:butt;stroke-linejoin:round;stroke:rgb(21.568627%,20.392157%,20.784314%);stroke-opacity:1;stroke-miterlimit:4;" d="M 377.489223 334.44382 C 377.489223 334.44382 398.221686 375.910951 383.966158 412.680572 L 321.596259 409.446608 C 321.596259 409.446608 266.032631 535.799396 259.712523 551.84332 L 220.999902 545.359654 C 220.999902 545.359654 229.264658 489.792125 235.090763 456.264337 C 237.843068 440.220413 237.200079 435.365532 246.915481 420.942525 C 256.474056 406.527385 291.469889 336.222107 291.469889 336.222107 L 377.64605 334.601191 Z M 377.489223 334.44382 " transform="matrix(0.498162,0,0,0.49644,0,0)"/>
<path style="fill-rule:nonzero;fill:rgb(49.411765%,49.411765%,49.803922%);fill-opacity:1;stroke-width:5.328;stroke-linecap:butt;stroke-linejoin:round;stroke:rgb(21.568627%,20.392157%,20.784314%);stroke-opacity:1;stroke-miterlimit:4;" d="M 132.871251 380.285852 C 131.09127 378.664935 127.852803 378.342326 123.963506 383.039836 C 123.963506 383.039836 43.942785 480.884954 28.064102 503.239436 L 42.484298 514.412742 L 132.228262 388.547804 C 132.228262 388.547804 136.603722 383.850294 132.871251 380.285852 Z M 132.871251 380.285852 " transform="matrix(0.498162,0,0,0.49644,0,0)"/>
<path style="fill-rule:nonzero;fill:rgb(83.921569%,21.176471%,22.745098%);fill-opacity:1;stroke-width:5.328;stroke-linecap:butt;stroke-linejoin:round;stroke:rgb(21.568627%,20.392157%,20.784314%);stroke-opacity:1;stroke-miterlimit:4;" d="M 24.660967 467.280273 C 24.660967 467.280273 7.002303 465.006269 2.948338 483.473699 C 2.948338 483.473699 1.011531 489.792125 7.166971 493.191328 C 13.157743 496.5984 19.156357 498.376687 19.156357 498.376687 L 35.999523 520.896408 C 35.999523 520.896408 40.210314 533.045412 51.870364 528.190531 C 63.538256 523.327782 70.501352 513.287543 63.702924 504.372504 L 42.641125 489.792125 Z M 24.660967 467.280273 " transform="matrix(0.498162,0,0,0.49644,0,0)"/>
<path style="fill-rule:nonzero;fill:rgb(99.215686%,85.098039%,76.078431%);fill-opacity:1;stroke-width:5.328;stroke-linecap:butt;stroke-linejoin:round;stroke:rgb(21.568627%,20.392157%,20.784314%);stroke-opacity:1;stroke-miterlimit:4;" d="M 251.777102 82.532967 C 259.069534 94.681971 273.325063 102.778684 273.325063 102.778684 L 280.774322 93.383664 C 280.774322 93.383664 285.957437 87.553087 289.039078 91.274899 C 290.17607 92.738445 289.682067 95.00458 290.011402 96.948106 C 295.516013 137.447409 288.87441 161.753285 262.472669 181.031173 L 264.895639 184.430376 L 267.161782 189.285257 C 270.078755 198.200296 250.804778 206.462248 250.804778 206.462248 C 245.78633 205.163942 245.1355 196.73675 245.1355 196.73675 L 244.006349 189.773105 C 209.818172 199.333364 163.813119 179.410257 152.153069 115.580775 C 147.291447 88.686154 154.740706 63.08984 169.490238 45.598107 C 169.490238 45.598107 236.219913 56.126195 251.94177 82.367728 Z M 251.777102 82.532967 " transform="matrix(0.498162,0,0,0.49644,0,0)"/>
<path style=" stroke:none;fill-rule:nonzero;fill:rgb(99.215686%,85.098039%,76.078431%);fill-opacity:1;" d="M 142.535156 60.675781 L 136.402344 51.585938 C 136.402344 51.585938 138.902344 44.429688 143.503906 43.867188 C 146.488281 43.546875 149.796875 43.867188 151.410156 48.210938 C 151.410156 48.210938 154.476562 60.433594 142.535156 60.597656 Z M 142.535156 60.675781 "/>
<path style="fill:none;stroke-width:5.328;stroke-linecap:round;stroke-linejoin:round;stroke:rgb(21.568627%,20.392157%,20.784314%);stroke-opacity:1;stroke-miterlimit:4;" d="M 273.811225 103.911752 C 273.811225 103.911752 278.829673 89.496612 288.066754 88.363545 C 294.057526 87.718326 300.699128 88.363545 303.937596 97.113345 C 303.937596 97.113345 310.093036 121.733963 286.122105 122.064441 " transform="matrix(0.498162,0,0,0.49644,0,0)"/>
<path style="fill-rule:nonzero;fill:rgb(99.215686%,85.098039%,76.078431%);fill-opacity:1;stroke-width:5.328;stroke-linecap:butt;stroke-linejoin:round;stroke:rgb(21.568627%,20.392157%,20.784314%);stroke-opacity:1;stroke-miterlimit:4;" d="M 201.890593 272.392626 L 132.385089 354.689537 C 132.385089 354.689537 120.238876 360.032266 108.900321 365.217625 C 106.626336 371.213441 106.791004 383.685055 110.680301 390.326091 C 110.680301 390.326091 118.294228 402.317724 137.568205 397.454975 C 137.568205 397.454975 154.254544 389.193023 149.55759 370.080374 C 149.55759 370.080374 206.579705 312.08147 224.238369 289.726988 L 202.047419 272.392626 Z M 201.890593 272.392626 " transform="matrix(0.498162,0,0,0.49644,0,0)"/>
<path style="fill-rule:nonzero;fill:rgb(49.411765%,49.411765%,49.803922%);fill-opacity:1;stroke-width:5.328;stroke-linecap:butt;stroke-linejoin:round;stroke:rgb(21.568627%,20.392157%,20.784314%);stroke-opacity:1;stroke-miterlimit:4;" d="M 132.871251 378.342326 C 131.09127 376.72141 127.852803 376.390931 123.963506 381.09631 C 123.963506 381.09631 32.439561 478.296209 16.39621 500.650691 L 30.816407 511.823997 L 132.228262 386.604278 C 132.228262 386.604278 136.603722 381.906768 132.871251 378.342326 Z M 132.871251 378.342326 " transform="matrix(0.498162,0,0,0.49644,0,0)"/>
<path style="fill-rule:nonzero;fill:rgb(98.431373%,69.803922%,29.411765%);fill-opacity:1;stroke-width:5.328;stroke-linecap:butt;stroke-linejoin:round;stroke:rgb(21.568627%,20.392157%,20.784314%);stroke-opacity:1;stroke-miterlimit:4;" d="M 245.1355 197.067229 C 251.126272 213.913742 264.738812 184.587747 264.738812 184.587747 C 264.738812 184.587747 291.94821 178.26932 315.119325 194.305376 C 348.005842 216.990336 370.032123 309.004877 380.892358 334.44382 C 380.892358 334.44382 343.465715 357.923501 286.4436 350.479876 C 286.4436 350.479876 261.657172 310.948402 247.887805 269.803881 C 234.761427 286.162546 226.833848 299.122008 226.833848 299.122008 L 193.461169 268.017726 C 217.275272 235.615136 232.495284 210.341432 232.495284 210.341432 C 232.495284 210.341432 238.98006 200.143822 244.970832 197.067229 Z M 245.1355 197.067229 " transform="matrix(0.498162,0,0,0.49644,0,0)"/>
<path style="fill-rule:nonzero;fill:rgb(95.686275%,71.372549%,82.745098%);fill-opacity:1;stroke-width:5.328;stroke-linecap:butt;stroke-linejoin:round;stroke:rgb(21.568627%,20.392157%,20.784314%);stroke-opacity:1;stroke-miterlimit:4;" d="M 286.937603 362.78625 C 286.937603 362.78625 351.730471 354.359059 387.526119 387.406868 C 422.678779 419.974696 468.370179 431.80109 485.864175 440.220413 C 504.65199 449.135452 535.915352 463.550592 541.592471 521.706866 C 544.015441 546.327483 527.015448 580.673598 489.424137 591.366925 C 489.424137 591.366925 441.960597 610.975291 279.966665 594.931367 C 279.966665 594.931367 213.550643 594.443518 255.987894 524.61822 C 287.74526 472.457763 283.691295 459.66354 281.589819 444.760552 C 275.269712 401.019417 300.699128 380.7737 300.699128 380.7737 L 225.532188 364.729776 C 225.532188 364.729776 220.192245 350.149398 245.1355 353.548601 C 266.518793 356.475693 242.218527 327.960155 253.400256 332.822904 C 264.574144 337.677785 286.608267 362.78625 286.608267 362.78625 Z M 286.937603 362.78625 " transform="matrix(0.498162,0,0,0.49644,0,0)"/>
<path style="fill-rule:nonzero;fill:rgb(99.215686%,85.098039%,76.078431%);fill-opacity:1;stroke-width:5.328;stroke-linecap:butt;stroke-linejoin:round;stroke:rgb(21.568627%,20.392157%,20.784314%);stroke-opacity:1;stroke-miterlimit:4;" d="M 343.951877 248.251989 C 343.951877 248.251989 353.02429 265.098503 353.839787 285.997307 C 354.80427 308.839637 341.850402 329.415832 310.422371 361.653183 C 310.422371 361.653183 307.670066 385.628581 294.865183 388.705174 C 290.983727 389.680872 290.011402 389.027784 286.122105 387.406868 C 282.562144 387.406868 279.151167 385.628581 276.56353 383.850294 C 270.243422 382.874597 267.334291 379.152784 267.334291 379.152784 C 267.334291 379.152784 257.611048 375.423103 265.389642 371.048202 C 273.811225 366.350693 274.783549 355.822605 273.160395 346.270215 C 280.131333 340.431769 285.635943 343.673601 295.194518 345.294518 C 301.349958 346.270215 322.411757 313.379777 329.861016 288.271311 C 331.154834 275.634459 325.642383 269.961252 320.459267 253.437347 L 343.951877 248.08675 Z M 343.951877 248.251989 " transform="matrix(0.498162,0,0,0.49644,0,0)"/>
<path style=" stroke:none;fill-rule:nonzero;fill:rgb(98.431373%,69.803922%,29.411765%);fill-opacity:1;" d="M 151.25 112.546875 L 157.707031 133.292969 C 157.707031 133.292969 157.460938 127.746094 151.25 112.546875 Z M 151.25 112.546875 "/>
<path style="fill-rule:nonzero;fill:rgb(74.509804%,74.901961%,75.686275%);fill-opacity:1;stroke-width:5.328;stroke-linecap:butt;stroke-linejoin:round;stroke:rgb(21.568627%,20.392157%,20.784314%);stroke-opacity:1;stroke-miterlimit:4;" d="M 65.16141 508.102185 C 68.23521 511.336149 66.125893 518.307663 60.299789 523.807762 C 54.630511 529.323599 47.502746 531.101886 44.421106 528.025292 C 41.339465 524.783459 43.448781 517.819814 49.282727 512.311846 C 54.952005 506.803878 62.079769 504.860352 65.16141 508.102185 Z M 65.16141 508.102185 " transform="matrix(0.498162,0,0,0.49644,0,0)"/>
<path style="fill-rule:nonzero;fill:rgb(82.745098%,93.333333%,98.823529%);fill-opacity:1;stroke-width:5.328;stroke-linecap:butt;stroke-linejoin:round;stroke:rgb(21.568627%,20.392157%,20.784314%);stroke-opacity:1;stroke-miterlimit:4;" d="M 155.877698 67.142131 C 155.877698 67.142131 159.116165 11.73984 228.770655 7.36494 C 228.770655 7.36494 286.122105 -0.251793 300.377634 65.521214 C 300.377634 65.521214 289.682067 86.742628 248.373967 83.500796 L 156.042366 67.142131 Z M 155.877698 67.142131 " transform="matrix(0.498162,0,0,0.49644,0,0)"/>
<path style="fill-rule:nonzero;fill:rgb(0%,68.627451%,93.72549%);fill-opacity:1;stroke-width:5.328;stroke-linecap:butt;stroke-linejoin:round;stroke:rgb(21.568627%,20.392157%,20.784314%);stroke-opacity:1;stroke-miterlimit:4;" d="M 155.877698 67.142131 L 112.460282 101.968226 C 112.460282 101.968226 168.996235 128.052389 228.770655 96.460258 C 228.770655 96.460258 247.566311 86.41215 256.317229 84.153883 C 256.317229 84.153883 185.36108 46.408565 156.042366 66.976892 Z M 155.877698 67.142131 " transform="matrix(0.498162,0,0,0.49644,0,0)"/>
<path style="fill:none;stroke-width:5.328;stroke-linecap:round;stroke-linejoin:round;stroke:rgb(21.568627%,20.392157%,20.784314%);stroke-opacity:1;stroke-miterlimit:4;" d="M 242.547863 155.10438 C 226.66918 172.603982 208.689022 165.152488 208.689022 165.152488 " transform="matrix(0.498162,0,0,0.49644,0,0)"/>
<path style="fill:none;stroke-width:5.328;stroke-linecap:round;stroke-linejoin:round;stroke:rgb(21.568627%,20.392157%,20.784314%);stroke-opacity:1;stroke-miterlimit:4;" d="M 208.689022 165.152488 L 209.339852 159.156671 " transform="matrix(0.498162,0,0,0.49644,0,0)"/>
<path style=" stroke:none;fill-rule:nonzero;fill:rgb(97.254902%,71.764706%,70.196078%);fill-opacity:0.701961;" d="M 94.921875 65.097656 C 95.082031 66.144531 92.421875 67.511719 88.949219 68.074219 C 85.476562 68.71875 82.492188 68.394531 82.332031 67.351562 C 82.171875 66.304688 84.835938 64.9375 88.304688 64.375 C 91.773438 63.730469 94.761719 64.054688 94.921875 65.097656 Z M 94.921875 65.097656 "/>
<path style=" stroke:none;fill-rule:nonzero;fill:rgb(99.607843%,99.607843%,99.607843%);fill-opacity:1;" d="M 88.382812 64.613281 L 87.578125 60.753906 C 87.578125 60.753906 87.738281 61.480469 88.382812 64.613281 Z M 88.382812 64.613281 "/>
<path style="fill:none;stroke-width:5.861;stroke-linecap:round;stroke-linejoin:round;stroke:rgb(21.568627%,20.392157%,20.784314%);stroke-opacity:1;stroke-miterlimit:4;" d="M 175.802505 122.379182 C 175.802505 122.379182 176.123999 123.842728 177.417818 130.153285 " transform="matrix(0.498162,0,0,0.49644,0,0)"/>
<path style=" stroke:none;fill-rule:nonzero;fill:rgb(97.254902%,71.764706%,70.196078%);fill-opacity:0.701961;" d="M 124.457031 60.03125 C 124.699219 61.078125 122.117188 62.523438 118.648438 63.328125 C 115.179688 64.132812 112.191406 63.890625 111.949219 62.925781 C 111.707031 61.882812 114.371094 60.433594 117.839844 59.628906 C 121.308594 58.824219 124.296875 59.066406 124.539062 60.03125 Z M 124.457031 60.03125 "/>
<path style=" stroke:none;fill-rule:nonzero;fill:rgb(99.607843%,99.607843%,99.607843%);fill-opacity:1;" d="M 116.546875 59.628906 L 115.660156 55.847656 C 115.660156 55.847656 115.660156 56.574219 116.546875 59.628906 Z M 116.546875 59.628906 "/>
<path style="fill:none;stroke-width:5.861;stroke-linecap:round;stroke-linejoin:round;stroke:rgb(21.568627%,20.392157%,20.784314%);stroke-opacity:1;stroke-miterlimit:4;" d="M 232.016963 112.496313 C 232.016963 112.496313 232.016963 113.959859 233.796944 120.113046 " transform="matrix(0.498162,0,0,0.49644,0,0)"/>
<path style="fill:none;stroke-width:3.996;stroke-linecap:round;stroke-linejoin:round;stroke:rgb(21.568627%,20.392157%,20.784314%);stroke-opacity:1;stroke-miterlimit:4;" d="M 206.258211 123.842728 C 209.175184 129.508066 195.562644 128.052389 198.32279 133.560357 C 200.102771 137.124799 208.853689 135.016034 211.770662 134.370815 " transform="matrix(0.498162,0,0,0.49644,0,0)"/>
<path style=" stroke:none;fill-rule:nonzero;fill:rgb(0%,68.627451%,93.72549%);fill-opacity:1;" d="M 123.488281 133.941406 L 117.195312 111.664062 C 117.195312 111.664062 120.664062 125.816406 123.488281 133.941406 Z M 123.488281 133.941406 "/>
<path style="fill:none;stroke-width:5.328;stroke-linecap:round;stroke-linejoin:round;stroke:rgb(21.568627%,20.392157%,20.784314%);stroke-opacity:1;stroke-miterlimit:4;" d="M 235.25543 224.929678 C 235.25543 224.929678 242.218527 253.437347 247.887805 269.803881 " transform="matrix(0.498162,0,0,0.49644,0,0)"/>
<path style="fill:none;stroke-width:5.328;stroke-linecap:round;stroke-linejoin:round;stroke:rgb(21.568627%,20.392157%,20.784314%);stroke-opacity:1;stroke-miterlimit:4;" d="M 240.438546 202.409958 C 240.438546 202.409958 242.218527 213.583264 253.078762 211.647607 C 264.25265 209.861452 273.489731 184.752986 273.489731 184.752986 " transform="matrix(0.498162,0,0,0.49644,0,0)"/>
<path style="fill:none;stroke-width:5.328;stroke-linecap:round;stroke-linejoin:round;stroke:rgb(21.568627%,20.392157%,20.784314%);stroke-opacity:1;stroke-miterlimit:4;" d="M 254.364739 82.202489 C 240.760041 20.159163 223.266045 8.985856 223.266045 8.985856 C 223.266045 8.985856 194.433493 17.23994 184.224088 59.037549 " transform="matrix(0.498162,0,0,0.49644,0,0)"/>
<path style="fill-rule:nonzero;fill:rgb(82.745098%,93.333333%,98.823529%);fill-opacity:1;stroke-width:5.328;stroke-linecap:butt;stroke-linejoin:round;stroke:rgb(21.568627%,20.392157%,20.784314%);stroke-opacity:1;stroke-miterlimit:4;" d="M 227.806172 6.389243 C 227.806172 8.498008 225.210693 10.118924 221.972226 10.118924 C 218.733759 10.118924 216.13828 8.498008 216.13828 6.389243 C 216.13828 4.280478 218.733759 2.66743 221.972226 2.66743 C 225.210693 2.66743 227.806172 4.280478 227.806172 6.389243 Z M 227.806172 6.389243 " transform="matrix(0.498162,0,0,0.49644,0,0)"/>
<path style="fill:none;stroke-width:5.328;stroke-linecap:round;stroke-linejoin:round;stroke:rgb(21.568627%,20.392157%,20.784314%);stroke-opacity:1;stroke-miterlimit:4;" d="M 440.666778 496.92101 C 440.666778 496.92101 456.53762 525.428679 428.998887 543.416129 " transform="matrix(0.498162,0,0,0.49644,0,0)"/>
<path style="fill:none;stroke-width:5.328;stroke-linecap:round;stroke-linejoin:round;stroke:rgb(21.568627%,20.392157%,20.784314%);stroke-opacity:1;stroke-miterlimit:4;" d="M 289.682067 524.46085 C 289.682067 524.46085 323.540908 531.912344 320.302441 573.064734 " transform="matrix(0.498162,0,0,0.49644,0,0)"/>
<path style="fill:none;stroke-width:5.328;stroke-linecap:round;stroke-linejoin:round;stroke:rgb(21.568627%,20.392157%,20.784314%);stroke-opacity:1;stroke-miterlimit:4;" d="M 353.02429 541.307364 C 353.02429 541.307364 392.066246 534.988937 404.698621 560.262642 " transform="matrix(0.498162,0,0,0.49644,0,0)"/>
<path style="fill-rule:nonzero;fill:rgb(98.431373%,69.803922%,29.411765%);fill-opacity:1;stroke-width:5.328;stroke-linecap:round;stroke-linejoin:round;stroke:rgb(21.568627%,20.392157%,20.784314%);stroke-opacity:1;stroke-miterlimit:4;" d="M 312.492481 192.668723 C 312.492481 192.668723 332.777989 203.708264 358.615154 248.417228 L 316.413144 268.497706 C 316.413144 268.497706 315.926981 257.324399 303.459275 226.707965 " transform="matrix(0.498162,0,0,0.49644,0,0)"/>
</g>
</svg>
